<svg xmlns="http://www.w3.org/2000/svg" width="99" height="99" viewBox="0 0 99 99"><defs><style>.a,.b{fill:#00d09c;}.b{opacity:0.3;}.c{fill:#fff;}</style></defs><g transform="translate(22 12)"><circle class="a" cx="27.5" cy="27.5" r="27.5"/><circle class="b" cx="19.5" cy="19.5" r="19.5" transform="translate(8 18)"/><g transform="translate(14 12)"><path class="c" d="M25.2,0H2.8A2.849,2.849,0,0,0,0,2.88V34l5.6-5.36H25.2A2.849,2.849,0,0,0,28,25.76V2.88A2.849,2.849,0,0,0,25.2,0Z"/><path class="a" d="M13.926,1.344A7.447,7.447,0,0,1,7.018,6,7.4,7.4,0,0,1,.069,1.321.974.974,0,0,1,.558.073.866.866,0,0,1,.9,0a.9.9,0,0,1,.835.589,5.6,5.6,0,0,0,5.279,3.5,5.641,5.641,0,0,0,5.248-3.5.886.886,0,0,1,1.188-.5A.976.976,0,0,1,13.926,1.344Z" transform="translate(7 18)"/></g></g></svg>